<svg xmlns="http://www.w3.org/2000/svg" viewBox="0 0 852.79 318.44"><defs><style>.cls-1{font-size:200px;font-family:Billabong, Billabong;}.cls-2{letter-spacing:-0.02em;}.cls-10,.cls-3,.cls-4,.cls-5,.cls-6,.cls-7,.cls-8,.cls-9{fill:none;stroke:#000;stroke-miterlimit:10;}.cls-3{stroke-width:2px;}.cls-4{stroke-width:6.46px;}.cls-5{stroke-width:6px;}.cls-6{stroke-width:2.59px;}.cls-7{stroke-width:3.23px;}.cls-8{stroke-width:1.61px;}.cls-9{stroke-width:4px;}</style></defs><title>Ativo 1</title><g id="Camada_2" data-name="Camada 2"><g id="Camada_1-2" data-name="Camada 1"><text class="cls-1" transform="translate(291.8 174.04)">C<tspan class="cls-2" x="88" y="0">a</tspan><tspan x="155.6" y="0">tsgram</tspan></text><line class="cls-3" x1="235.23" y1="14.76" x2="235.23" y2="238.76"/><rect class="cls-4" x="3.23" y="38.51" width="159" height="159" rx="33.85" ry="33.85"/><circle class="cls-4" cx="83.54" cy="118.82" r="43.58"/><path d="M135.82,72.72c9.35,0,9.36-14.53,0-14.53s-9.36,14.53,0,14.53Z"/><path class="cls-5" d="M29.86,38.51C27.94,19.64,34.79,4.75,43.58,3.15,53,1.44,69.42,14.1,76.68,36.58"/><path class="cls-5" d="M135.27,38.51c1.92-18.87-4.93-33.76-13.72-35.36C112.14,1.44,95.72,14.1,88.46,36.58"/><polygon points="83.13 85.33 93.62 97.03 72.65 97.03 83.13 85.33"/><polygon class="cls-6" points="83.13 85.33 72.65 97.03 93.62 97.03 83.13 85.33"/><path d="M61.88,102.14a1.21,1.21,0,0,0,0-2.42,1.21,1.21,0,0,0,0,2.42Z"/><path d="M62.42,109.67a1.21,1.21,0,0,0,0-2.42,1.21,1.21,0,0,0,0,2.42Z"/><path d="M56,105.91a1.21,1.21,0,0,0,0-2.42,1.21,1.21,0,0,0,0,2.42Z"/><path d="M103.58,101.06a1.21,1.21,0,0,0,0-2.42,1.21,1.21,0,0,0,0,2.42Z"/><path d="M103,107.52a1.21,1.21,0,0,0,0-2.42,1.21,1.21,0,0,0,0,2.42Z"/><path d="M108.42,104.29a1.21,1.21,0,0,0,0-2.42,1.21,1.21,0,0,0,0,2.42Z"/><path class="cls-7" d="M94.43,107.12a9,9,0,0,1-8.07-2.42A8.93,8.93,0,0,1,84.27,97"/><path class="cls-7" d="M73.6,107.12a9,9,0,0,0,8.07-2.42A8.93,8.93,0,0,0,83.76,97"/><line class="cls-8" x1="105.33" y1="99.45" x2="133.58" y2="91.38"/><line class="cls-8" x1="110.41" y1="102.68" x2="139.79" y2="102.68"/><line class="cls-8" x1="104.86" y1="106.65" x2="134.05" y2="110"/><line class="cls-8" x1="58.61" y1="101.06" x2="30.36" y2="92.99"/><line class="cls-8" x1="53.53" y1="105.1" x2="24.15" y2="105.1"/><line class="cls-8" x1="59.89" y1="109.07" x2="30.7" y2="112.42"/><path class="cls-9" d="M76.73,107.26c-1,6.2,1.24,11.46,5,13a6.72,6.72,0,0,0,5,0c3.53-1.57,5.51-6.87,4-13"/><path class="cls-10" d="M39.73,138.26"/><line class="cls-3" x1="83.73" y1="114.76" x2="83.73" y2="103.76"/></g></g></svg>